<?xml version="1.0" encoding="utf-8"?>
<!-- Generator: Adobe Illustrator 16.0.0, SVG Export Plug-In . SVG Version: 6.00 Build 0)  -->
<!DOCTYPE svg PUBLIC "-//W3C//DTD SVG 1.1//EN" "http://www.w3.org/Graphics/SVG/1.1/DTD/svg11.dtd">
<svg version="1.1" id="Layer_1" xmlns="http://www.w3.org/2000/svg" xmlns:xlink="http://www.w3.org/1999/xlink" x="0px" y="0px"
	 width="219.205px" height="80px" viewBox="0 0 219.205 80" enable-background="new 0 0 219.205 80" xml:space="preserve">
<g>
	<path fill="#BABEC3" d="M11.14,42.88c0.171-0.019,0.356-0.034,0.563-0.05c0.202-0.011,0.387-0.021,0.555-0.028
		c0.169-0.011,0.283-0.016,0.355-0.016c0.635,0.005,1.194,0.13,1.674,0.38c0.479,0.246,0.912,0.582,1.305,1.011
		c0.398,0.422,0.784,0.902,1.158,1.442c0.19,0.259,0.397,0.566,0.636,0.925c0.231,0.356,0.47,0.729,0.713,1.112
		c0.24,0.381,0.462,0.742,0.658,1.077c0.202,0.336,0.365,0.606,0.479,0.821c0.108,0.2,0.288,0.51,0.537,0.964
		c0.247,0.438,0.519,0.934,0.828,1.486c0.306,0.544,0.613,1.077,0.903,1.587c0.297,0.517,0.554,0.931,0.767,1.267
		c0.206,0.327,0.43,0.665,0.667,1.015c0.246,0.341,0.486,0.66,0.72,0.947c0.239,0.285,0.456,0.502,0.636,0.644
		c0.348-0.012,0.756-0.037,1.213-0.049c0.467-0.027,0.947-0.051,1.44-0.064c0.496-0.017,0.959-0.022,1.398-0.022
		c0.974,0,1.78,0.017,2.4,0.036c0.617,0.023,1.096,0.037,1.435,0.063c0.326,0.025,0.56,0.037,0.673,0.037
		c0.137,0,0.229-0.037,0.289-0.102c0.056-0.079,0.082-0.195,0.082-0.353v-0.965c0-0.09-0.026-0.166-0.082-0.226
		c-0.061-0.059-0.152-0.093-0.289-0.093c-0.564,0.017-1.135-0.037-1.718-0.144c-0.583-0.11-1.1-0.353-1.55-0.725
		c-0.147-0.136-0.358-0.393-0.642-0.745c-0.284-0.357-0.608-0.77-0.952-1.234c-0.342-0.463-0.689-0.925-1.024-1.391
		c-0.325-0.456-0.608-0.852-0.847-1.187c-0.229-0.336-0.387-0.559-0.444-0.654c-0.078-0.124-0.234-0.358-0.485-0.725
		c-0.233-0.355-0.522-0.778-0.842-1.267c-0.321-0.486-0.655-0.978-0.98-1.471c-0.335-0.485-0.631-0.928-0.898-1.313
		c-0.26-0.378-0.451-0.654-0.564-0.805c-0.313-0.422-0.703-0.816-1.137-1.188c-0.445-0.374-0.988-0.683-1.627-0.915v-0.182
		c1.702-0.272,3.188-0.737,4.473-1.413c1.276-0.677,2.277-1.621,2.99-2.848c0.719-1.228,1.084-2.801,1.095-4.703
		c0-0.589-0.089-1.173-0.272-1.781c-0.185-0.599-0.463-1.188-0.833-1.75c-0.364-0.574-0.827-1.103-1.376-1.596
		c-0.613-0.557-1.338-1.042-2.171-1.475c-0.837-0.44-1.771-0.774-2.806-1.022c-1.037-0.254-2.169-0.372-3.398-0.385
		c-0.354,0-0.861,0.013-1.497,0.028c-0.641,0.01-1.364,0.026-2.147,0.043c-0.788,0.017-1.577,0.033-2.377,0.048
		c-0.79,0.011-1.513,0.022-2.17,0.022c-1.483,0-2.676-0.017-3.563-0.038c-0.891-0.028-1.543-0.05-1.962-0.066
		c-0.426-0.021-0.674-0.038-0.778-0.038c-0.113,0-0.195,0.028-0.243,0.076c-0.058,0.049-0.078,0.129-0.078,0.248v1.235
		c0,0.09,0.021,0.162,0.078,0.205c0.048,0.042,0.13,0.07,0.243,0.07h1.797c0.423,0,0.775,0.184,1.048,0.556
		c0.272,0.379,0.414,0.952,0.424,1.731v12.027c0,2.141,0,4.303-0.01,6.476c-0.01,2.179-0.039,4.412-0.083,6.693
		c0,0.406-0.074,0.725-0.228,0.936c-0.147,0.224-0.354,0.373-0.614,0.46C4.422,55.6,4.118,55.642,3.78,55.637H2.215
		c-0.096,0-0.167,0.03-0.21,0.096C1.956,55.8,1.937,55.89,1.937,56.003v1.049c0,0.141,0.02,0.237,0.086,0.311
		c0.048,0.064,0.142,0.102,0.284,0.102c0.108,0,0.274-0.006,0.505-0.023c0.24-0.014,0.576-0.025,1.009-0.042
		c0.447-0.017,1.038-0.034,1.777-0.048c0.732-0.017,1.663-0.022,2.776-0.022c1.192,0,2.167,0.006,2.926,0.022
		c0.757,0.014,1.354,0.031,1.801,0.048c0.445,0.017,0.783,0.028,1.014,0.042c0.238,0.018,0.427,0.023,0.563,0.023
		c0.185,0,0.316-0.023,0.393-0.082c0.076-0.06,0.115-0.169,0.115-0.33v-1.097c0-0.091-0.023-0.167-0.077-0.229
		c-0.061-0.06-0.152-0.09-0.288-0.09H12.52c-0.244-0.006-0.445-0.082-0.607-0.243c-0.16-0.163-0.29-0.372-0.383-0.646
		c-0.093-0.251-0.162-0.538-0.207-0.846c-0.016-0.146-0.038-0.445-0.054-0.894c-0.015-0.443-0.038-0.984-0.056-1.627
		c-0.016-0.638-0.021-1.317-0.037-2.033c-0.016-0.722-0.021-1.432-0.033-2.128c-0.003-0.694-0.003-1.315-0.003-1.872V42.88z
		 M11.322,28.061c0-0.281,0.045-0.54,0.135-0.782c0.094-0.244,0.235-0.423,0.415-0.543c0.185-0.119,0.413-0.194,0.69-0.221
		c0.277-0.037,0.597-0.063,0.968-0.054c1.158-0.01,2.247,0.137,3.278,0.433c1.03,0.298,1.96,0.811,2.797,1.536
		c0.387,0.351,0.734,0.801,1.034,1.325c0.305,0.533,0.541,1.118,0.717,1.765c0.18,0.651,0.271,1.319,0.271,2.028
		c0.007,0.438-0.065,0.979-0.205,1.622c-0.146,0.661-0.406,1.335-0.768,2.055c-0.369,0.724-0.874,1.395-1.527,2.026
		c-0.659,0.633-1.485,1.151-2.492,1.548c-1.011,0.395-2.229,0.599-3.661,0.614c-0.271,0-0.548-0.021-0.843-0.059
		c-0.281-0.032-0.581-0.075-0.901-0.124L11.322,28.061z M51.445,24.267c-1.003-0.013-2.041,0.06-3.134,0.222
		c-1.089,0.151-2.197,0.431-3.318,0.854c-1.126,0.409-2.244,1.005-3.345,1.772c-1.104,0.779-2.157,1.779-3.179,3.005
		c-1.139,1.421-2.021,2.833-2.635,4.223c-0.607,1.377-1.038,2.68-1.272,3.904c-0.229,1.215-0.336,2.291-0.325,3.214
		c0.005,1.646,0.205,3.186,0.587,4.619c0.386,1.425,0.896,2.719,1.544,3.88c0.641,1.162,1.364,2.172,2.154,3.018
		c0.798,0.852,1.599,1.522,2.43,2.021c1.235,0.728,2.476,1.309,3.721,1.757c1.239,0.442,2.43,0.764,3.572,0.961
		c1.144,0.203,2.178,0.297,3.105,0.297c2.29-0.015,4.286-0.302,5.99-0.869c1.706-0.572,3.195-1.342,4.459-2.312
		c1.266-0.981,2.387-2.078,3.35-3.311c0.833-1.043,1.489-2.117,1.989-3.242c0.496-1.12,0.867-2.245,1.091-3.396
		c0.221-1.152,0.337-2.299,0.324-3.424c-0.004-1.555-0.169-3.004-0.487-4.345c-0.322-1.351-0.772-2.584-1.338-3.713
		c-0.579-1.125-1.237-2.147-1.998-3.061c-0.75-0.918-1.566-1.723-2.428-2.417c-1.26-1-2.505-1.759-3.74-2.297
		c-1.235-0.524-2.441-0.892-3.632-1.087C53.739,24.348,52.574,24.254,51.445,24.267L51.445,24.267z M51.259,26.278
		c0.896,0,1.849,0.221,2.866,0.671c1.011,0.443,2.008,1.097,2.992,1.957c0.989,0.871,1.878,1.94,2.691,3.204
		c0.805,1.255,1.447,2.714,1.931,4.351c0.484,1.644,0.734,3.461,0.745,5.456c0.006,0.556-0.033,1.221-0.109,1.989
		c-0.072,0.772-0.207,1.6-0.397,2.486c-0.188,0.88-0.46,1.774-0.803,2.68c-0.349,0.911-0.783,1.768-1.312,2.591
		c-0.539,0.832-1.18,1.571-1.94,2.223c-0.769,0.648-1.661,1.161-2.679,1.542c-1.026,0.375-2.2,0.566-3.527,0.575
		c-0.653,0-1.381-0.124-2.171-0.366c-0.794-0.243-1.614-0.632-2.459-1.171c-0.836-0.524-1.646-1.209-2.431-2.05
		c-0.782-0.852-1.489-1.86-2.109-3.051c-0.632-1.189-1.125-2.566-1.497-4.14c-0.358-1.569-0.548-3.337-0.559-5.319
		c0-0.925,0.088-1.892,0.255-2.897c0.169-1.008,0.417-2.006,0.767-2.996c0.337-1.001,0.769-1.936,1.288-2.822
		c0.517-0.893,1.132-1.675,1.836-2.352c0.776-0.746,1.532-1.303,2.233-1.675c0.706-0.368,1.349-0.623,1.943-0.74
		c0.58-0.124,1.081-0.179,1.5-0.168C50.739,26.256,51.052,26.262,51.259,26.278L51.259,26.278z M76.93,42.786
		c0,0.763,0,1.579-0.007,2.472c-0.008,0.88-0.015,1.767-0.032,2.665c-0.003,0.893-0.022,1.73-0.037,2.525
		c-0.016,0.784-0.033,1.461-0.055,2.027c-0.016,0.569-0.027,0.967-0.056,1.192c-0.037,0.477-0.111,0.854-0.228,1.145
		c-0.114,0.288-0.298,0.497-0.556,0.624c-0.25,0.138-0.603,0.2-1.055,0.2h-1.979c-0.092,0-0.169,0.022-0.228,0.076
		c-0.062,0.048-0.093,0.126-0.093,0.242V57.1c0,0.113,0.031,0.206,0.093,0.265c0.059,0.071,0.136,0.1,0.228,0.1
		c0.32,0,0.762-0.012,1.31-0.037c0.562-0.025,1.268-0.039,2.117-0.063c0.853-0.02,1.87-0.036,3.062-0.036
		c0.468,0,0.992,0.006,1.561,0.022c0.587,0.014,1.186,0.031,1.796,0.048c0.613,0.017,1.212,0.028,1.796,0.042
		c0.575,0.018,1.096,0.023,1.564,0.023c1.708,0,3.199-0.049,4.465-0.167c1.262-0.121,2.345-0.299,3.246-0.53
		c0.908-0.236,1.681-0.535,2.319-0.902c0.552-0.304,1.051-0.716,1.493-1.237c0.437-0.519,0.815-1.111,1.127-1.76
		c0.313-0.648,0.553-1.308,0.714-1.993c0.168-0.683,0.254-1.334,0.254-1.957c-0.007-1.61-0.332-3.006-0.979-4.178
		c-0.653-1.167-1.591-2.153-2.822-2.937c-1.234-0.777-2.725-1.4-4.481-1.854v-0.227c1.44-0.524,2.621-1.135,3.545-1.827
		c0.925-0.698,1.609-1.503,2.057-2.426c0.441-0.919,0.656-1.991,0.656-3.2c0.007-0.914-0.107-1.757-0.336-2.531
		c-0.225-0.767-0.595-1.465-1.104-2.081c-0.518-0.616-1.208-1.151-2.055-1.605c-0.558-0.308-1.246-0.551-2.058-0.725
		c-0.82-0.185-1.735-0.313-2.753-0.395c-1.026-0.082-2.114-0.12-3.289-0.12c-0.839,0-1.681,0.017-2.512,0.038
		c-0.849,0.017-1.627,0.038-2.356,0.066c-0.739,0.021-1.349,0.038-1.849,0.038c-1.931,0.016-3.455,0-4.564-0.053
		c-1.12-0.051-1.831-0.076-2.151-0.089c-0.143,0-0.23,0.034-0.283,0.104c-0.066,0.064-0.085,0.172-0.085,0.313v1.049
		c0,0.135,0.019,0.227,0.085,0.28c0.053,0.059,0.141,0.087,0.283,0.087h1.467c0.441-0.011,0.816,0.006,1.132,0.054
		c0.313,0.043,0.581,0.151,0.79,0.318c0.207,0.174,0.368,0.449,0.482,0.822c0.116,0.374,0.193,0.892,0.222,1.546
		c0.007,0.168,0.023,0.492,0.028,0.967c0.018,0.492,0.029,1.055,0.037,1.708c0.018,0.654,0.03,1.334,0.033,2.022
		c0.018,0.692,0.024,1.335,0.032,1.917c0.007,0.58,0.007,1.045,0.007,1.39V42.786z M82.543,43.608v-2.832h1.197
		c0.796-0.019,1.647,0.028,2.556,0.134c0.908,0.099,1.805,0.331,2.687,0.689c0.871,0.334,1.637,0.819,2.294,1.463
		c0.658,0.639,1.181,1.433,1.551,2.379c0.375,0.94,0.566,2.038,0.577,3.292c-0.011,1.385-0.202,2.55-0.577,3.485
		c-0.375,0.942-0.882,1.687-1.528,2.244c-0.653,0.548-1.382,0.945-2.209,1.19c-0.821,0.236-1.685,0.355-2.588,0.35
		c-0.974,0.006-1.757-0.203-2.334-0.626c-0.581-0.412-1.005-1.077-1.257-1.968c-0.254-0.897-0.375-2.064-0.368-3.485V43.608z
		 M82.543,35.835c0-0.967,0.009-1.919,0.014-2.848c0.008-0.93,0.023-1.796,0.038-2.584c0.018-0.799,0.033-1.471,0.047-2.037
		c0.016-0.559,0.026-0.953,0.042-1.174c0.027-0.184,0.099-0.341,0.213-0.47c0.113-0.124,0.238-0.217,0.379-0.261
		c0.197-0.048,0.41-0.069,0.665-0.086c0.243-0.004,0.482-0.004,0.72-0.004c0.466,0,1.003,0.042,1.604,0.149
		c0.603,0.097,1.217,0.271,1.853,0.503c0.631,0.238,1.231,0.551,1.79,0.944c0.489,0.375,0.882,0.813,1.18,1.315
		c0.301,0.502,0.512,1.043,0.643,1.61c0.143,0.574,0.201,1.152,0.201,1.74c0.005,0.672-0.076,1.335-0.228,1.99
		c-0.162,0.651-0.419,1.265-0.768,1.843c-0.355,0.58-0.813,1.098-1.397,1.563c-0.339,0.275-0.763,0.513-1.269,0.708
		c-0.494,0.2-1.057,0.351-1.67,0.459c-0.614,0.107-1.255,0.156-1.938,0.156c-0.36,0-0.713,0-1.058-0.005
		c-0.349,0-0.699-0.016-1.06-0.037V35.835z M114.012,38.945c0-0.093,0-0.343,0.008-0.763c0-0.417,0.005-0.953,0.005-1.59
		c0.013-0.644,0.02-1.335,0.021-2.094c0.012-0.744,0.012-1.496,0.021-2.247c0.009-0.746,0.013-1.438,0.02-2.077
		c0-0.631,0.013-1.16,0.013-1.572c0.007-0.412,0.007-0.648,0.007-0.725c0.007-0.432,0.176-0.748,0.493-0.946
		c0.318-0.196,0.74-0.297,1.256-0.286h1.748c0.092,0,0.178-0.028,0.254-0.087c0.065-0.053,0.109-0.145,0.113-0.28v-1.049
		c0-0.12-0.021-0.215-0.088-0.292c-0.047-0.076-0.14-0.125-0.279-0.125c-0.154,0-0.375,0.013-0.679,0.028
		c-0.287,0.01-0.678,0.026-1.173,0.043c-0.494,0.017-1.125,0.033-1.894,0.048c-0.754,0.011-1.688,0.022-2.79,0.022
		c-2.246-0.011-3.987-0.034-5.204-0.07c-1.229-0.038-1.979-0.059-2.246-0.072c-0.093,0-0.162,0.028-0.204,0.076
		c-0.051,0.049-0.075,0.129-0.075,0.248v1.191c0,0.114,0.024,0.188,0.084,0.242c0.055,0.048,0.146,0.076,0.283,0.076h2.393
		c0.634-0.011,1.092,0.113,1.375,0.362c0.283,0.248,0.452,0.643,0.512,1.187c0.009,0.109,0.015,0.402,0.033,0.867
		c0.003,0.469,0.015,1.043,0.021,1.73c0.015,0.685,0.02,1.411,0.032,2.178c0.016,0.767,0.021,1.508,0.028,2.228
		c0.012,0.708,0.016,1.324,0.016,1.848c0.009,0.519,0.009,0.875,0.009,1.077v3.199c0,0.356,0,0.85-0.009,1.464
		c0,0.616-0.004,1.309-0.016,2.081c0,0.769-0.008,1.568-0.024,2.401c-0.004,0.834-0.017,1.648-0.021,2.438
		c-0.015,0.792-0.021,1.525-0.036,2.179c-0.012,0.663-0.024,1.204-0.04,1.63c-0.009,0.426-0.02,0.694-0.035,0.796
		c-0.07,0.4-0.209,0.699-0.426,0.891c-0.224,0.191-0.474,0.315-0.772,0.363c-0.297,0.054-0.609,0.076-0.921,0.071h-1.842
		c-0.137,0-0.228,0.022-0.281,0.07c-0.062,0.042-0.083,0.112-0.083,0.206v1.231c0,0.113,0.021,0.2,0.083,0.243
		c0.054,0.053,0.145,0.076,0.281,0.076c0.146,0,0.488-0.012,1.019-0.037c0.534-0.025,1.3-0.039,2.286-0.063
		c0.996-0.02,2.255-0.036,3.781-0.036c1.438,0,2.617,0.017,3.543,0.036c0.928,0.023,1.641,0.037,2.147,0.063
		c0.504,0.025,0.853,0.037,1.028,0.037c0.136,0,0.255-0.023,0.331-0.082c0.081-0.054,0.13-0.144,0.13-0.282v-1.145
		c-0.011-0.116-0.049-0.194-0.114-0.242c-0.081-0.054-0.163-0.076-0.257-0.076h-1.928c-0.37,0.005-0.691-0.034-0.968-0.1
		c-0.278-0.073-0.49-0.236-0.644-0.474c-0.159-0.23-0.231-0.598-0.231-1.077c0-0.081,0-0.335-0.007-0.767
		c0-0.432-0.013-0.983-0.013-1.644c-0.007-0.666-0.011-1.388-0.02-2.171c-0.009-0.778-0.009-1.559-0.021-2.343
		c-0.002-0.778-0.009-1.503-0.021-2.168c0-0.658-0.005-1.2-0.005-1.627c-0.008-0.428-0.008-0.682-0.008-0.758V38.945z
		 M149.211,47.635c-0.131-0.047-0.239-0.047-0.315-0.017c-0.073,0.038-0.151,0.111-0.239,0.196
		c-0.131,0.361-0.342,0.832-0.643,1.427c-0.294,0.59-0.641,1.221-1.066,1.893c-0.414,0.677-0.864,1.322-1.36,1.939
		c-0.485,0.626-1,1.145-1.521,1.573c-0.529,0.429-1.049,0.677-1.57,0.762c-0.471,0.056-1.007,0.099-1.627,0.129
		c-0.614,0.037-1.267,0.063-1.962,0.065c-0.7,0.017-1.4,0.028-2.113,0.034c-0.701,0-1.374,0-2.027,0h-2.579
		c-0.023-0.294-0.048-0.72-0.071-1.283c-0.015-0.556-0.037-1.21-0.043-1.938c-0.013-0.741-0.021-1.522-0.039-2.326
		c-0.009-0.814-0.014-1.615-0.014-2.41c-0.006-0.785-0.006-1.516-0.006-2.18c-0.009-0.669-0.009-1.228-0.009-1.677
		c0-0.441,0-0.733,0-0.854v-3.935c0-0.542,0.009-1.158,0.015-1.86c0.005-0.698,0.014-1.432,0.032-2.193
		c0.009-0.763,0.026-1.516,0.046-2.254c0.015-0.742,0.028-1.416,0.041-2.043c0.017-0.628,0.024-1.142,0.034-1.559
		c0.009-0.41,0.014-0.675,0.014-0.79c-0.005-0.41,0.022-0.74,0.098-0.994c0.072-0.243,0.224-0.427,0.445-0.54
		c0.231-0.103,0.566-0.157,1.023-0.157h2.48c0.179-0.011,0.299-0.048,0.37-0.113c0.063-0.082,0.093-0.162,0.093-0.255v-1.049
		c0-0.12-0.03-0.215-0.093-0.292c-0.071-0.076-0.191-0.125-0.37-0.125c-0.114,0-0.429,0.017-0.942,0.038
		c-0.515,0.017-1.287,0.038-2.316,0.066c-1.026,0.021-2.359,0.038-4.007,0.038c-1.403,0-2.544-0.017-3.426-0.038
		c-0.875-0.028-1.551-0.05-2.013-0.066c-0.457-0.021-0.768-0.038-0.913-0.038c-0.139,0-0.23,0.028-0.283,0.076
		c-0.062,0.066-0.083,0.156-0.083,0.293v1.055c0,0.073,0.021,0.156,0.083,0.258c0.053,0.087,0.145,0.141,0.283,0.152h1.934
		c0.391,0,0.693,0.054,0.9,0.157c0.193,0.113,0.335,0.292,0.419,0.53c0.075,0.243,0.129,0.563,0.151,0.956
		c0.026,0.162,0.038,0.465,0.052,0.908c0.023,0.444,0.04,0.979,0.058,1.596c0.018,0.622,0.031,1.286,0.039,1.993
		c0.012,0.709,0.021,1.417,0.032,2.121c0.003,0.692,0.003,1.341,0.003,1.934v2.563c0,0.406,0,0.952-0.003,1.654
		c-0.011,0.692-0.021,1.487-0.032,2.379c-0.008,0.881-0.021,1.804-0.035,2.767c-0.011,0.958-0.026,1.9-0.038,2.811
		c-0.012,0.922-0.029,1.769-0.037,2.538c-0.012,0.761-0.023,1.404-0.027,1.906c0,0.502-0.011,0.814-0.011,0.944
		c0.011,0.209-0.037,0.397-0.133,0.587c-0.096,0.183-0.282,0.335-0.563,0.459c-0.278,0.118-0.69,0.189-1.236,0.189h-1.838
		c-0.13,0-0.218,0.022-0.238,0.084c-0.033,0.054-0.045,0.144-0.037,0.282v1.049c-0.008,0.161,0.004,0.271,0.043,0.33
		c0.037,0.059,0.146,0.082,0.326,0.082c0.172,0,0.494-0.012,0.972-0.037c0.47-0.025,1.145-0.039,2.009-0.063
		c0.877-0.02,1.997-0.036,3.365-0.036c0.678,0,1.503,0,2.476,0.006c0.966,0,2.029,0.011,3.159,0.017
		c1.143,0,2.302,0.012,3.492,0.014c1.188,0.006,2.34,0.018,3.456,0.023c1.11,0.014,2.142,0.027,3.058,0.03
		c0.933,0.009,1.697,0.018,2.313,0.022c0.61,0.012,1.013,0.018,1.185,0.023c0.05-0.212,0.132-0.578,0.257-1.083
		c0.12-0.508,0.262-1.094,0.418-1.766c0.168-0.665,0.338-1.358,0.508-2.061c0.18-0.708,0.348-1.368,0.507-1.979
		c0.154-0.615,0.293-1.131,0.4-1.522c0.103-0.406,0.18-0.632,0.213-0.688c0-0.132,0-0.236-0.018-0.295
		c-0.005-0.07-0.026-0.127-0.073-0.164L149.211,47.635z"/>
	<path fill="#BABEC3" d="M170.927,44.755c0.114,0.351,0.266,0.827,0.468,1.447c0.19,0.616,0.41,1.293,0.639,2.038
		c0.229,0.753,0.454,1.497,0.678,2.244c0.234,0.748,0.431,1.425,0.597,2.033c0.182,0.609,0.302,1.086,0.375,1.424
		c0.147,0.615,0.108,1.047-0.095,1.314c-0.214,0.262-0.643,0.386-1.278,0.381h-1.194c-0.144,0-0.239,0.022-0.293,0.084
		c-0.06,0.054-0.082,0.144-0.082,0.282v0.916c0,0.145,0.037,0.263,0.096,0.37c0.069,0.112,0.189,0.169,0.368,0.175
		c0.325,0,0.751-0.012,1.263-0.037c0.518-0.025,1.178-0.039,2.015-0.063c0.829-0.02,1.89-0.036,3.164-0.036
		c1.258,0,2.284,0.006,3.082,0.022c0.807,0.014,1.443,0.031,1.91,0.048c0.473,0.017,0.842,0.028,1.118,0.042
		c0.265,0.018,0.51,0.023,0.695,0.023c0.188-0.006,0.306-0.063,0.373-0.175c0.066-0.107,0.096-0.226,0.093-0.37v-0.964
		c0-0.116-0.026-0.194-0.081-0.242c-0.063-0.054-0.154-0.076-0.289-0.076h-1.475c-0.304,0-0.636-0.063-0.988-0.2
		c-0.346-0.136-0.692-0.355-1.029-0.672c-0.336-0.302-0.644-0.713-0.925-1.231c-0.108-0.218-0.278-0.598-0.495-1.165
		c-0.217-0.563-0.474-1.246-0.769-2.044c-0.286-0.792-0.592-1.655-0.907-2.568c-0.325-0.92-0.646-1.845-0.956-2.768
		c-0.316-0.932-0.609-1.806-0.877-2.622c-0.276-0.823-0.502-1.536-0.689-2.141c-0.143-0.492-0.349-1.167-0.619-2.006
		c-0.273-0.837-0.578-1.773-0.924-2.811c-0.345-1.043-0.703-2.118-1.078-3.216c-0.369-1.101-0.733-2.18-1.086-3.217
		c-0.347-1.026-0.648-1.957-0.917-2.789c-0.271-0.823-0.479-1.487-0.623-1.968c-0.03-0.096-0.066-0.204-0.123-0.335
		c-0.054-0.129-0.113-0.232-0.185-0.334c-0.069-0.099-0.151-0.141-0.244-0.152c-0.115,0-0.224,0.048-0.333,0.13
		c-0.102,0.075-0.22,0.19-0.356,0.328c-0.147,0.147-0.392,0.32-0.734,0.543c-0.349,0.21-0.747,0.431-1.197,0.671
		c-0.452,0.237-0.909,0.447-1.363,0.636c-0.462,0.194-0.882,0.337-1.257,0.438c-0.181,0.044-0.299,0.114-0.37,0.195
		c-0.062,0.076-0.093,0.168-0.093,0.261c0,0.075,0.031,0.167,0.08,0.275c0.056,0.108,0.126,0.199,0.197,0.275
		c0.081,0.097,0.132,0.238,0.117,0.427c-0.003,0.185-0.036,0.374-0.081,0.578c-0.054,0.207-0.094,0.389-0.13,0.547
		c-0.07,0.178-0.189,0.513-0.372,0.995c-0.188,0.479-0.412,1.058-0.666,1.746c-0.257,0.675-0.532,1.406-0.826,2.182
		c-0.299,0.786-0.588,1.563-0.882,2.338c-0.288,0.774-0.562,1.491-0.806,2.155c-0.249,0.66-0.462,1.228-0.63,1.678
		c-0.168,0.453-0.282,0.75-0.328,0.891c-0.233,0.648-0.507,1.395-0.825,2.231c-0.326,0.839-0.664,1.715-1.022,2.64
		c-0.359,0.912-0.712,1.819-1.07,2.702c-0.354,0.891-0.69,1.714-1.003,2.464c-0.303,0.753-0.567,1.379-0.788,1.881
		c-0.21,0.502-0.357,0.832-0.445,0.973c-0.4,0.713-0.831,1.227-1.294,1.563c-0.468,0.335-1.011,0.499-1.647,0.499h-1.382
		c-0.091,0-0.158,0.022-0.206,0.084c-0.044,0.054-0.07,0.144-0.07,0.282v0.865c-0.007,0.167,0.01,0.308,0.035,0.421
		c0.028,0.112,0.112,0.169,0.241,0.175c0.2,0,0.485-0.012,0.842-0.037c0.367-0.025,0.871-0.039,1.533-0.063
		c0.67-0.02,1.568-0.036,2.687-0.036c1.611,0.006,2.9,0.034,3.864,0.07c0.967,0.037,1.608,0.06,1.933,0.065
		c0.137,0,0.233-0.046,0.289-0.13c0.056-0.076,0.079-0.189,0.079-0.324v-1.146c0.009-0.064-0.023-0.121-0.093-0.169
		c-0.063-0.036-0.181-0.059-0.364-0.059h-1.939c-0.467-0.006-0.858-0.113-1.17-0.327c-0.308-0.209-0.466-0.466-0.481-0.772
		c0-0.11,0-0.257,0.016-0.424c0.008-0.172,0.028-0.352,0.076-0.538c0.037-0.212,0.132-0.544,0.268-1.004
		c0.13-0.465,0.299-0.989,0.489-1.599c0.195-0.601,0.4-1.229,0.614-1.878s0.431-1.269,0.631-1.861
		c0.196-0.594,0.375-1.111,0.527-1.547c0.154-0.439,0.263-0.753,0.321-0.932H170.927z M160.899,42.922
		c0.053-0.156,0.167-0.492,0.352-1.011c0.176-0.519,0.403-1.153,0.675-1.896c0.273-0.757,0.565-1.558,0.883-2.417
		c0.315-0.863,0.617-1.724,0.937-2.579c0.302-0.853,0.598-1.638,0.856-2.361c0.261-0.715,0.474-1.31,0.644-1.785
		c0.169-0.469,0.265-0.751,0.297-0.843c0.072-0.205,0.154-0.362,0.245-0.448c0.104-0.103,0.219-0.147,0.352-0.147
		c0.096,0,0.169,0.065,0.232,0.206c0.067,0.137,0.146,0.341,0.232,0.617c0.043,0.136,0.136,0.447,0.271,0.924
		c0.147,0.469,0.328,1.059,0.534,1.756c0.21,0.699,0.434,1.459,0.69,2.275c0.244,0.811,0.489,1.627,0.74,2.46
		c0.245,0.82,0.485,1.594,0.705,2.313c0.226,0.724,0.416,1.352,0.578,1.865c0.157,0.515,0.276,0.876,0.343,1.07H160.899z
		 M196.321,42.88c0.179-0.019,0.362-0.034,0.571-0.05c0.193-0.011,0.379-0.021,0.548-0.028c0.17-0.011,0.283-0.016,0.354-0.016
		c0.637,0.005,1.195,0.13,1.68,0.38c0.475,0.246,0.911,0.582,1.306,1.011c0.397,0.422,0.778,0.902,1.159,1.442
		c0.19,0.261,0.397,0.566,0.637,0.925c0.229,0.356,0.466,0.729,0.711,1.112c0.234,0.381,0.457,0.742,0.658,1.077
		c0.203,0.336,0.358,0.606,0.476,0.821c0.106,0.2,0.293,0.51,0.535,0.964c0.248,0.438,0.523,0.934,0.829,1.486
		c0.308,0.544,0.615,1.077,0.905,1.587c0.299,0.517,0.55,0.931,0.767,1.267c0.208,0.327,0.432,0.665,0.667,1.015
		c0.244,0.341,0.483,0.66,0.722,0.947c0.238,0.285,0.453,0.502,0.637,0.644c0.342-0.012,0.75-0.037,1.212-0.049
		c0.468-0.027,0.938-0.051,1.442-0.064c0.489-0.017,0.959-0.022,1.393-0.022c0.975,0,1.778,0.017,2.404,0.036
		c0.62,0.023,1.091,0.037,1.429,0.063c0.333,0.025,0.559,0.037,0.672,0.037c0.144,0,0.236-0.037,0.299-0.102
		c0.054-0.076,0.073-0.195,0.073-0.353v-0.965c0-0.09-0.02-0.166-0.073-0.226c-0.063-0.059-0.155-0.093-0.299-0.093
		c-0.562,0.017-1.125-0.037-1.709-0.144c-0.587-0.11-1.099-0.353-1.552-0.725c-0.143-0.136-0.363-0.393-0.645-0.745
		c-0.285-0.357-0.606-0.77-0.953-1.234c-0.342-0.463-0.688-0.922-1.018-1.391c-0.33-0.456-0.615-0.852-0.852-1.187
		c-0.229-0.336-0.383-0.559-0.441-0.654c-0.078-0.124-0.241-0.358-0.486-0.725c-0.235-0.355-0.521-0.778-0.841-1.267
		c-0.322-0.486-0.655-0.978-0.986-1.471c-0.337-0.485-0.625-0.928-0.896-1.313c-0.26-0.378-0.454-0.654-0.564-0.805
		c-0.318-0.422-0.696-0.816-1.138-1.188c-0.441-0.374-0.991-0.683-1.627-0.915v-0.182c1.702-0.272,3.193-0.737,4.471-1.413
		c1.285-0.677,2.281-1.621,2.991-2.848c0.722-1.228,1.083-2.801,1.097-4.703c0-0.589-0.09-1.173-0.273-1.781
		c-0.188-0.599-0.459-1.188-0.827-1.75c-0.374-0.574-0.827-1.103-1.383-1.596c-0.613-0.557-1.334-1.042-2.169-1.475
		c-0.837-0.44-1.773-0.774-2.807-1.022c-1.033-0.254-2.17-0.372-3.399-0.385c-0.348,0-0.853,0.013-1.491,0.028
		c-0.646,0.01-1.364,0.026-2.148,0.043c-0.788,0.017-1.582,0.033-2.378,0.048c-0.794,0.011-1.512,0.022-2.167,0.022
		c-1.492,0-2.676-0.017-3.57-0.038c-0.885-0.028-1.539-0.05-1.965-0.066c-0.417-0.021-0.671-0.038-0.77-0.038
		c-0.116,0-0.2,0.028-0.248,0.076c-0.05,0.049-0.071,0.129-0.071,0.248v1.235c0,0.09,0.021,0.162,0.071,0.205
		c0.048,0.042,0.132,0.07,0.248,0.07h1.796c0.417,0,0.771,0.184,1.048,0.556c0.269,0.379,0.414,0.952,0.418,1.731v12.027
		c0,2.141,0,4.303-0.004,6.476c-0.016,2.179-0.039,4.412-0.089,6.693c0,0.406-0.073,0.725-0.226,0.936
		c-0.148,0.224-0.354,0.373-0.616,0.46c-0.261,0.076-0.563,0.118-0.903,0.113h-1.565c-0.093,0-0.156,0.03-0.204,0.096
		c-0.044,0.067-0.066,0.157-0.066,0.271v1.049c0,0.141,0.022,0.237,0.079,0.311c0.057,0.064,0.146,0.102,0.283,0.102
		c0.111,0,0.278-0.006,0.506-0.023c0.24-0.014,0.577-0.025,1.011-0.042c0.449-0.017,1.041-0.034,1.775-0.048
		c0.733-0.017,1.664-0.022,2.783-0.022c1.184,0,2.159,0.006,2.921,0.022c0.765,0.014,1.362,0.031,1.802,0.048
		c0.445,0.017,0.784,0.028,1.015,0.042c0.234,0.018,0.424,0.023,0.57,0.023c0.18,0,0.313-0.023,0.386-0.082
		c0.079-0.06,0.116-0.169,0.116-0.33v-1.097c0-0.091-0.021-0.167-0.076-0.229c-0.063-0.06-0.152-0.09-0.294-0.09h-2.301
		c-0.245-0.006-0.438-0.082-0.604-0.243c-0.163-0.163-0.293-0.372-0.386-0.646c-0.092-0.251-0.158-0.538-0.206-0.846
		c-0.014-0.146-0.036-0.445-0.055-0.894c-0.01-0.443-0.037-0.984-0.048-1.627c-0.019-0.638-0.03-1.317-0.038-2.033
		c-0.02-0.722-0.028-1.432-0.034-2.128c-0.01-0.694-0.01-1.315-0.01-1.872V42.88z M196.506,28.061c0-0.281,0.048-0.54,0.141-0.782
		c0.094-0.244,0.229-0.423,0.412-0.543c0.189-0.119,0.414-0.194,0.69-0.221c0.274-0.037,0.601-0.063,0.965-0.054
		c1.157-0.01,2.247,0.137,3.285,0.433c1.028,0.298,1.952,0.811,2.792,1.536c0.388,0.351,0.732,0.801,1.034,1.325
		c0.306,0.533,0.541,1.118,0.722,1.765c0.172,0.651,0.267,1.319,0.267,2.028c0.007,0.438-0.061,0.979-0.209,1.622
		c-0.146,0.661-0.407,1.335-0.766,2.055c-0.366,0.724-0.877,1.395-1.524,2.026c-0.663,0.633-1.489,1.151-2.498,1.548
		c-1.009,0.395-2.229,0.599-3.652,0.614c-0.278,0-0.554-0.021-0.841-0.059c-0.286-0.032-0.583-0.075-0.909-0.124L196.506,28.061z"/>
	<path fill="#1F140F" d="M10,42.88c0.175-0.019,0.361-0.034,0.564-0.05c0.203-0.011,0.389-0.021,0.557-0.028
		c0.169-0.011,0.282-0.016,0.354-0.016c0.638,0.005,1.196,0.13,1.674,0.38c0.478,0.246,0.915,0.582,1.305,1.011
		c0.396,0.422,0.783,0.902,1.16,1.442c0.19,0.259,0.396,0.566,0.636,0.925c0.229,0.356,0.467,0.729,0.713,1.112
		c0.239,0.381,0.461,0.742,0.658,1.077c0.201,0.336,0.363,0.606,0.478,0.821c0.11,0.2,0.288,0.51,0.539,0.964
		c0.245,0.438,0.517,0.934,0.828,1.486c0.304,0.544,0.612,1.077,0.901,1.587c0.298,0.517,0.555,0.931,0.768,1.267
		c0.207,0.327,0.428,0.665,0.667,1.015c0.248,0.341,0.485,0.66,0.72,0.947c0.239,0.285,0.456,0.502,0.636,0.644
		c0.349-0.012,0.754-0.037,1.213-0.049c0.469-0.027,0.946-0.051,1.441-0.064c0.491-0.017,0.957-0.022,1.398-0.022
		c0.972,0,1.778,0.017,2.397,0.036c0.62,0.023,1.098,0.037,1.438,0.063c0.324,0.025,0.559,0.037,0.674,0.037
		c0.135,0,0.228-0.037,0.288-0.102c0.054-0.079,0.082-0.195,0.082-0.353v-0.965c0-0.09-0.028-0.166-0.082-0.226
		c-0.061-0.059-0.153-0.093-0.288-0.093c-0.566,0.017-1.138-0.037-1.718-0.144c-0.584-0.11-1.1-0.353-1.551-0.725
		c-0.147-0.136-0.361-0.393-0.644-0.745c-0.282-0.357-0.608-0.77-0.951-1.234c-0.344-0.463-0.69-0.925-1.022-1.391
		c-0.326-0.456-0.609-0.852-0.847-1.187c-0.23-0.336-0.389-0.559-0.448-0.654c-0.076-0.124-0.236-0.358-0.483-0.725
		c-0.235-0.355-0.522-0.778-0.843-1.267c-0.322-0.486-0.653-0.978-0.98-1.471c-0.336-0.485-0.629-0.928-0.896-1.313
		c-0.26-0.378-0.452-0.654-0.566-0.805c-0.314-0.422-0.7-0.816-1.136-1.188c-0.446-0.374-0.99-0.683-1.627-0.915v-0.182
		c1.703-0.272,3.188-0.737,4.471-1.413c1.277-0.677,2.278-1.621,2.991-2.848c0.718-1.228,1.082-2.801,1.094-4.703
		c0-0.589-0.087-1.173-0.273-1.781c-0.184-0.599-0.46-1.188-0.831-1.75c-0.365-0.574-0.825-1.103-1.375-1.596
		c-0.616-0.557-1.339-1.042-2.171-1.475c-0.836-0.44-1.774-0.774-2.806-1.022c-1.04-0.254-2.171-0.372-3.4-0.385
		c-0.353,0-0.858,0.013-1.495,0.028c-0.642,0.01-1.365,0.026-2.148,0.043c-0.788,0.017-1.578,0.033-2.377,0.048
		c-0.787,0.011-1.513,0.022-2.169,0.022c-1.484,0-2.679-0.017-3.563-0.038c-0.892-0.028-1.546-0.05-1.964-0.066
		c-0.425-0.021-0.674-0.038-0.777-0.038c-0.113,0-0.195,0.028-0.245,0.076c-0.055,0.049-0.077,0.129-0.077,0.248v1.235
		c0,0.09,0.022,0.162,0.077,0.205c0.05,0.042,0.132,0.07,0.245,0.07h1.795c0.426,0,0.778,0.184,1.051,0.556
		c0.27,0.379,0.412,0.952,0.423,1.731v12.027c0,2.141,0,4.303-0.011,6.476c-0.012,2.179-0.037,4.412-0.081,6.693
		c0,0.406-0.077,0.725-0.229,0.936c-0.146,0.224-0.355,0.373-0.614,0.46C3.285,55.6,2.98,55.642,2.643,55.637H1.077
		c-0.095,0-0.165,0.03-0.209,0.096C0.819,55.8,0.799,55.89,0.799,56.003v1.049c0,0.141,0.021,0.237,0.087,0.311
		c0.049,0.064,0.141,0.102,0.285,0.102c0.105,0,0.274-0.006,0.504-0.023c0.238-0.014,0.576-0.025,1.012-0.042
		c0.445-0.017,1.033-0.034,1.771-0.048c0.735-0.017,1.665-0.022,2.779-0.022c1.193,0,2.167,0.006,2.928,0.022
		c0.755,0.014,1.354,0.031,1.8,0.048c0.446,0.017,0.782,0.028,1.01,0.042c0.24,0.018,0.431,0.023,0.567,0.023
		c0.184,0,0.315-0.023,0.393-0.082c0.074-0.06,0.114-0.169,0.114-0.33v-1.097c0-0.091-0.022-0.167-0.077-0.229
		c-0.06-0.06-0.152-0.09-0.289-0.09h-2.301c-0.242-0.006-0.443-0.082-0.608-0.243c-0.158-0.163-0.289-0.372-0.381-0.646
		c-0.093-0.251-0.162-0.538-0.206-0.846c-0.018-0.146-0.038-0.445-0.056-0.894c-0.016-0.443-0.037-0.984-0.054-1.627
		c-0.017-0.638-0.021-1.317-0.039-2.033c-0.016-0.722-0.019-1.432-0.031-2.128C10,46.526,10,45.905,10,45.349V42.88z M10.187,28.061
		c0-0.281,0.044-0.54,0.135-0.782c0.093-0.244,0.233-0.423,0.415-0.543c0.184-0.119,0.412-0.194,0.689-0.221
		c0.277-0.037,0.599-0.063,0.968-0.054c1.158-0.01,2.247,0.137,3.279,0.433c1.028,0.298,1.957,0.811,2.796,1.536
		c0.387,0.351,0.736,0.801,1.033,1.325c0.307,0.533,0.544,1.118,0.719,1.765c0.18,0.651,0.271,1.319,0.271,2.028
		c0.005,0.438-0.065,0.979-0.206,1.622c-0.148,0.661-0.409,1.335-0.768,2.055c-0.369,0.724-0.875,1.395-1.529,2.026
		c-0.656,0.633-1.482,1.151-2.489,1.548c-1.013,0.395-2.23,0.599-3.661,0.614c-0.271,0-0.549-0.021-0.843-0.059
		c-0.284-0.032-0.582-0.075-0.902-0.124L10.187,28.061z M50.307,24.267c-1-0.013-2.039,0.06-3.131,0.222
		c-1.089,0.151-2.199,0.431-3.319,0.854c-1.125,0.409-2.244,1.005-3.343,1.772c-1.106,0.779-2.161,1.779-3.183,3.005
		c-1.137,1.421-2.017,2.833-2.635,4.223c-0.607,1.377-1.037,2.68-1.271,3.904c-0.228,1.215-0.339,2.291-0.326,3.214
		c0.005,1.646,0.205,3.186,0.586,4.619c0.388,1.425,0.899,2.719,1.546,3.88c0.641,1.162,1.365,2.172,2.153,3.018
		c0.795,0.852,1.599,1.522,2.431,2.021c1.234,0.728,2.475,1.309,3.723,1.757c1.237,0.442,2.43,0.764,3.568,0.961
		c1.145,0.203,2.176,0.297,3.108,0.297c2.292-0.015,4.285-0.302,5.99-0.869c1.706-0.572,3.198-1.342,4.459-2.312
		c1.266-0.981,2.386-2.078,3.349-3.311c0.832-1.043,1.492-2.117,1.992-3.242c0.493-1.12,0.862-2.245,1.086-3.396
		c0.222-1.152,0.338-2.299,0.327-3.424c-0.003-1.555-0.17-3.004-0.49-4.345c-0.32-1.351-0.774-2.584-1.337-3.713
		c-0.577-1.125-1.236-2.147-1.996-3.061c-0.751-0.918-1.566-1.723-2.434-2.417c-1.254-1-2.498-1.759-3.732-2.297
		c-1.237-0.524-2.442-0.892-3.637-1.087C52.603,24.348,51.438,24.254,50.307,24.267L50.307,24.267z M50.122,26.278
		c0.897,0,1.85,0.221,2.867,0.671c1.011,0.443,2.007,1.097,2.992,1.957c0.986,0.871,1.876,1.94,2.691,3.204
		c0.805,1.255,1.447,2.714,1.93,4.351c0.485,1.644,0.734,3.461,0.746,5.456c0.004,0.556-0.033,1.221-0.11,1.989
		c-0.077,0.772-0.203,1.6-0.396,2.486c-0.191,0.88-0.461,1.774-0.806,2.68c-0.347,0.911-0.782,1.768-1.309,2.591
		c-0.54,0.832-1.183,1.571-1.941,2.223c-0.769,0.648-1.66,1.161-2.679,1.542c-1.028,0.375-2.201,0.566-3.528,0.575
		c-0.651,0-1.382-0.124-2.17-0.366c-0.792-0.243-1.616-0.632-2.459-1.171c-0.837-0.524-1.646-1.209-2.432-2.05
		c-0.782-0.852-1.489-1.86-2.109-3.051c-0.631-1.189-1.126-2.566-1.495-4.14c-0.359-1.569-0.55-3.337-0.561-5.319
		c0-0.925,0.087-1.892,0.256-2.897c0.17-1.008,0.419-2.006,0.769-2.996c0.335-1.001,0.765-1.936,1.287-2.822
		c0.518-0.893,1.132-1.675,1.832-2.352c0.78-0.746,1.535-1.303,2.237-1.675c0.705-0.368,1.348-0.623,1.94-0.74
		c0.582-0.124,1.081-0.179,1.502-0.168C49.601,26.256,49.916,26.262,50.122,26.278L50.122,26.278z M75.791,42.786
		c0,0.763,0,1.579-0.003,2.472c-0.012,0.88-0.016,1.767-0.031,2.665c-0.007,0.893-0.022,1.73-0.04,2.525
		c-0.018,0.784-0.032,1.461-0.055,2.027c-0.018,0.569-0.033,0.967-0.055,1.192c-0.037,0.477-0.116,0.854-0.229,1.145
		c-0.114,0.288-0.298,0.497-0.554,0.624c-0.251,0.138-0.604,0.2-1.056,0.2h-1.979c-0.092,0-0.169,0.022-0.229,0.076
		c-0.061,0.048-0.094,0.126-0.094,0.242V57.1c0,0.113,0.033,0.206,0.094,0.265c0.06,0.071,0.137,0.1,0.229,0.1
		c0.32,0,0.759-0.012,1.312-0.037c0.557-0.025,1.266-0.039,2.114-0.063c0.854-0.02,1.871-0.036,3.06-0.036
		c0.47,0,0.992,0.006,1.563,0.022c0.587,0.014,1.187,0.031,1.796,0.048c0.614,0.017,1.211,0.028,1.792,0.042
		c0.576,0.018,1.102,0.023,1.567,0.023c1.707,0,3.198-0.049,4.467-0.167c1.261-0.121,2.342-0.299,3.246-0.53
		c0.908-0.236,1.683-0.535,2.318-0.902c0.556-0.304,1.048-0.716,1.493-1.237c0.437-0.519,0.816-1.111,1.128-1.76
		c0.313-0.648,0.555-1.308,0.713-1.993c0.169-0.683,0.255-1.334,0.255-1.957c-0.007-1.61-0.332-3.006-0.985-4.178
		c-0.646-1.167-1.584-2.153-2.818-2.937c-1.233-0.777-2.725-1.4-4.481-1.854v-0.227c1.441-0.524,2.622-1.135,3.547-1.827
		c0.925-0.698,1.612-1.503,2.055-2.426c0.441-0.919,0.661-1.991,0.661-3.2c0.004-0.914-0.11-1.757-0.338-2.531
		c-0.224-0.767-0.595-1.465-1.105-2.081c-0.517-0.616-1.207-1.151-2.056-1.605c-0.555-0.308-1.246-0.551-2.055-0.725
		c-0.821-0.185-1.735-0.313-2.751-0.395c-1.028-0.082-2.116-0.12-3.293-0.12c-0.837,0-1.68,0.017-2.511,0.038
		c-0.849,0.017-1.627,0.038-2.355,0.066c-0.741,0.021-1.354,0.038-1.852,0.038c-1.93,0.016-3.451,0-4.56-0.053
		c-1.121-0.051-1.834-0.076-2.154-0.089c-0.142,0-0.228,0.034-0.282,0.104c-0.066,0.064-0.089,0.172-0.089,0.313v1.049
		c0,0.135,0.022,0.227,0.089,0.28c0.055,0.059,0.141,0.087,0.282,0.087h1.468c0.438-0.011,0.815,0.006,1.131,0.054
		c0.314,0.043,0.583,0.151,0.788,0.318c0.208,0.174,0.371,0.449,0.484,0.822c0.115,0.374,0.191,0.892,0.223,1.546
		c0.006,0.168,0.021,0.492,0.028,0.967c0.015,0.492,0.025,1.055,0.037,1.708c0.018,0.654,0.028,1.334,0.035,2.022
		c0.016,0.692,0.02,1.335,0.031,1.917c0.003,0.58,0.003,1.045,0.003,1.39V42.786z M81.404,43.608v-2.832h1.198
		c0.798-0.019,1.646,0.028,2.555,0.134c0.91,0.099,1.808,0.331,2.688,0.689c0.872,0.334,1.638,0.819,2.296,1.463
		c0.656,0.639,1.18,1.433,1.551,2.379c0.375,0.94,0.563,2.038,0.577,3.292c-0.014,1.385-0.202,2.55-0.577,3.485
		c-0.375,0.942-0.882,1.687-1.528,2.244c-0.654,0.548-1.384,0.945-2.209,1.19c-0.821,0.236-1.687,0.355-2.59,0.35
		c-0.974,0.006-1.756-0.203-2.332-0.626c-0.582-0.412-1.007-1.077-1.257-1.968c-0.257-0.897-0.375-2.064-0.371-3.485V43.608z
		 M81.404,35.835c0-0.967,0.013-1.919,0.018-2.848c0.007-0.93,0.022-1.796,0.037-2.584c0.018-0.799,0.033-1.471,0.044-2.037
		c0.016-0.559,0.027-0.953,0.045-1.174c0.025-0.184,0.099-0.341,0.212-0.47c0.112-0.124,0.239-0.217,0.382-0.261
		c0.193-0.048,0.405-0.069,0.662-0.086c0.244-0.004,0.485-0.004,0.718-0.004c0.467,0,1.007,0.042,1.604,0.149
		c0.602,0.097,1.219,0.271,1.854,0.503c0.632,0.238,1.229,0.551,1.789,0.944c0.489,0.375,0.882,0.813,1.179,1.315
		c0.3,0.502,0.511,1.043,0.645,1.61c0.14,0.574,0.199,1.152,0.199,1.74c0.005,0.672-0.074,1.335-0.228,1.99
		c-0.163,0.651-0.419,1.265-0.769,1.843c-0.353,0.58-0.813,1.098-1.395,1.563c-0.34,0.275-0.763,0.513-1.269,0.708
		c-0.495,0.2-1.054,0.351-1.668,0.459c-0.617,0.107-1.257,0.156-1.943,0.156c-0.358,0-0.713,0-1.056-0.005
		c-0.347,0-0.702-0.016-1.062-0.037V35.835z M112.875,38.945c0-0.093,0-0.343,0.012-0.763c0-0.417,0.004-0.953,0.004-1.59
		c0.012-0.644,0.016-1.335,0.021-2.094c0.012-0.744,0.012-1.496,0.016-2.247c0.013-0.746,0.018-1.438,0.022-2.077
		c0-0.631,0.011-1.16,0.011-1.572c0.006-0.412,0.006-0.648,0.006-0.725c0.012-0.432,0.181-0.748,0.494-0.946
		c0.323-0.196,0.741-0.297,1.257-0.286h1.746c0.095,0,0.179-0.028,0.257-0.087c0.063-0.053,0.107-0.145,0.112-0.28v-1.049
		c0-0.12-0.021-0.215-0.087-0.292c-0.048-0.076-0.14-0.125-0.282-0.125c-0.152,0-0.376,0.013-0.673,0.028
		c-0.29,0.01-0.682,0.026-1.176,0.043c-0.496,0.017-1.126,0.033-1.894,0.048c-0.754,0.011-1.688,0.022-2.792,0.022
		c-2.244-0.011-3.984-0.034-5.203-0.07c-1.23-0.038-1.98-0.059-2.246-0.072c-0.094,0-0.164,0.028-0.212,0.076
		c-0.045,0.049-0.065,0.129-0.065,0.248v1.191c0,0.114,0.021,0.188,0.083,0.242c0.052,0.048,0.146,0.076,0.282,0.076h2.391
		c0.637-0.011,1.094,0.113,1.378,0.362c0.28,0.248,0.452,0.643,0.511,1.187c0.011,0.109,0.018,0.402,0.033,0.867
		c0.004,0.469,0.015,1.043,0.022,1.73c0.015,0.685,0.019,1.411,0.028,2.178c0.02,0.767,0.023,1.508,0.03,2.228
		c0.01,0.708,0.018,1.324,0.018,1.848c0.011,0.519,0.011,0.875,0.011,1.077v3.199c0,0.356,0,0.85-0.011,1.464
		c0,0.616-0.008,1.309-0.018,2.081c0,0.769-0.007,1.568-0.022,2.401c-0.008,0.834-0.018,1.648-0.021,2.438
		c-0.015,0.792-0.022,1.525-0.037,2.179c-0.011,0.663-0.022,1.204-0.038,1.63c-0.008,0.426-0.023,0.694-0.039,0.796
		c-0.072,0.4-0.208,0.699-0.424,0.891c-0.222,0.191-0.473,0.315-0.773,0.363c-0.296,0.054-0.608,0.076-0.918,0.071h-1.844
		c-0.136,0-0.229,0.022-0.283,0.07c-0.059,0.042-0.081,0.112-0.081,0.206v1.231c0,0.113,0.022,0.2,0.081,0.243
		c0.055,0.053,0.147,0.076,0.283,0.076c0.145,0,0.488-0.012,1.022-0.037c0.526-0.025,1.294-0.039,2.283-0.063
		c0.998-0.02,2.251-0.036,3.779-0.036c1.439,0,2.619,0.017,3.542,0.036c0.931,0.023,1.643,0.037,2.149,0.063
		c0.505,0.025,0.852,0.037,1.029,0.037c0.134,0,0.254-0.023,0.329-0.082c0.084-0.054,0.132-0.144,0.132-0.282v-1.145
		c-0.011-0.116-0.048-0.194-0.115-0.242c-0.082-0.054-0.163-0.076-0.255-0.076h-1.932c-0.37,0.005-0.69-0.034-0.967-0.1
		c-0.279-0.073-0.489-0.236-0.643-0.474c-0.158-0.23-0.233-0.598-0.233-1.077c0-0.081,0-0.335-0.006-0.767
		c0-0.432-0.011-0.983-0.011-1.644c-0.005-0.666-0.01-1.388-0.022-2.171c-0.004-0.778-0.004-1.559-0.016-2.343
		c-0.006-0.778-0.01-1.503-0.021-2.168c0-0.658-0.004-1.2-0.004-1.627c-0.012-0.428-0.012-0.682-0.012-0.758V38.945z"/>
	<path fill="#E97400" d="M148.074,47.635c-0.132-0.047-0.237-0.047-0.318-0.017c-0.066,0.038-0.148,0.111-0.234,0.196
		c-0.133,0.361-0.347,0.832-0.646,1.427c-0.295,0.59-0.641,1.221-1.064,1.893c-0.415,0.677-0.865,1.322-1.36,1.939
		c-0.489,0.626-1.002,1.145-1.521,1.573c-0.527,0.429-1.049,0.677-1.573,0.762c-0.468,0.056-1.005,0.099-1.628,0.129
		c-0.614,0.037-1.266,0.063-1.963,0.065c-0.696,0.017-1.398,0.028-2.108,0.034c-0.704,0-1.377,0-2.029,0h-2.576
		c-0.021-0.294-0.051-0.72-0.074-1.283c-0.013-0.556-0.035-1.21-0.04-1.938c-0.018-0.741-0.024-1.522-0.038-2.326
		c-0.012-0.814-0.019-1.615-0.019-2.41c-0.005-0.785-0.005-1.516-0.005-2.18c-0.011-0.669-0.011-1.228-0.011-1.677
		c0-0.441,0-0.733,0-0.854v-3.935c0-0.542,0.011-1.158,0.016-1.86c0.007-0.698,0.019-1.432,0.032-2.193
		c0.011-0.763,0.029-1.516,0.044-2.254c0.016-0.742,0.033-1.416,0.044-2.043c0.016-0.628,0.029-1.142,0.032-1.559
		c0.013-0.41,0.019-0.675,0.019-0.79c-0.006-0.41,0.02-0.74,0.096-0.994c0.071-0.243,0.225-0.427,0.448-0.54
		c0.227-0.103,0.563-0.157,1.021-0.157h2.48c0.18-0.011,0.298-0.048,0.37-0.113c0.06-0.082,0.092-0.162,0.092-0.255v-1.049
		c0-0.12-0.032-0.215-0.092-0.292c-0.072-0.076-0.19-0.125-0.37-0.125c-0.114,0-0.427,0.017-0.94,0.038
		c-0.518,0.017-1.29,0.038-2.317,0.066c-1.028,0.021-2.359,0.038-4.008,0.038c-1.402,0-2.546-0.017-3.425-0.038
		c-0.877-0.028-1.554-0.05-2.017-0.066c-0.453-0.021-0.765-0.038-0.912-0.038c-0.137,0-0.229,0.028-0.283,0.076
		c-0.059,0.066-0.081,0.156-0.081,0.293v1.055c0,0.073,0.022,0.156,0.081,0.258c0.055,0.087,0.146,0.141,0.283,0.152h1.938
		c0.391,0,0.691,0.054,0.896,0.157c0.195,0.113,0.339,0.292,0.42,0.53c0.074,0.243,0.13,0.563,0.152,0.956
		c0.026,0.162,0.037,0.465,0.053,0.908c0.021,0.444,0.037,0.979,0.055,1.596c0.018,0.622,0.034,1.286,0.037,1.993
		c0.018,0.709,0.025,1.417,0.036,2.121c0.004,0.692,0.004,1.341,0.004,1.934v2.563c0,0.406,0,0.952-0.004,1.654
		c-0.011,0.692-0.019,1.487-0.036,2.379c-0.003,0.881-0.02,1.804-0.032,2.767c-0.01,0.958-0.024,1.9-0.039,2.811
		c-0.008,0.922-0.025,1.769-0.036,2.538c-0.011,0.761-0.021,1.404-0.028,1.906c0,0.502-0.009,0.814-0.009,0.944
		c0.009,0.209-0.039,0.397-0.131,0.587c-0.099,0.183-0.281,0.335-0.566,0.459c-0.276,0.118-0.691,0.189-1.234,0.189h-1.839
		c-0.132,0-0.219,0.022-0.239,0.084c-0.032,0.054-0.041,0.144-0.037,0.282v1.049c-0.004,0.161,0.005,0.271,0.042,0.33
		c0.037,0.059,0.147,0.082,0.329,0.082c0.173,0,0.493-0.012,0.974-0.037c0.465-0.025,1.141-0.039,2.005-0.063
		c0.878-0.02,1.994-0.036,3.367-0.036c0.68,0,1.502,0,2.476,0.006c0.966,0,2.03,0.011,3.159,0.017c1.141,0,2.301,0.012,3.49,0.014
		c1.187,0.006,2.339,0.018,3.46,0.023c1.109,0.014,2.137,0.027,3.058,0.03c0.927,0.009,1.695,0.018,2.31,0.022
		c0.608,0.012,1.012,0.018,1.188,0.023c0.048-0.212,0.129-0.578,0.254-1.083c0.119-0.508,0.261-1.094,0.421-1.766
		c0.166-0.665,0.335-1.358,0.504-2.061c0.181-0.708,0.348-1.368,0.504-1.979c0.154-0.615,0.294-1.131,0.405-1.522
		c0.103-0.406,0.177-0.632,0.212-0.688c0-0.132,0-0.236-0.015-0.295c-0.007-0.07-0.032-0.127-0.077-0.164L148.074,47.635z
		 M169.791,44.755c0.114,0.351,0.266,0.827,0.467,1.447c0.192,0.616,0.409,1.293,0.636,2.038c0.23,0.753,0.457,1.497,0.682,2.244
		c0.233,0.748,0.43,1.425,0.598,2.033c0.181,0.609,0.302,1.086,0.375,1.424c0.146,0.615,0.109,1.047-0.099,1.314
		c-0.213,0.262-0.641,0.386-1.277,0.381h-1.195c-0.143,0-0.237,0.022-0.291,0.084c-0.057,0.054-0.082,0.144-0.082,0.282v0.916
		c0,0.145,0.034,0.263,0.097,0.37c0.07,0.112,0.186,0.169,0.366,0.175c0.327,0,0.75-0.012,1.265-0.037s1.18-0.039,2.016-0.063
		c0.828-0.02,1.888-0.036,3.16-0.036c1.257,0,2.283,0.006,3.084,0.022c0.806,0.014,1.441,0.031,1.909,0.048
		c0.474,0.017,0.843,0.028,1.119,0.042c0.268,0.018,0.508,0.023,0.699,0.023c0.184-0.006,0.302-0.063,0.368-0.175
		c0.063-0.107,0.098-0.226,0.095-0.37v-0.964c0-0.116-0.031-0.194-0.085-0.242c-0.059-0.054-0.15-0.076-0.286-0.076h-1.476
		c-0.307,0-0.638-0.063-0.987-0.2c-0.346-0.136-0.69-0.355-1.029-0.672c-0.338-0.302-0.643-0.713-0.926-1.231
		c-0.108-0.218-0.278-0.598-0.495-1.165c-0.217-0.563-0.473-1.246-0.766-2.044c-0.292-0.792-0.594-1.655-0.906-2.568
		c-0.33-0.92-0.648-1.845-0.965-2.768c-0.313-0.932-0.605-1.806-0.869-2.622c-0.278-0.823-0.51-1.536-0.689-2.141
		c-0.145-0.492-0.353-1.167-0.623-2.006c-0.271-0.837-0.575-1.773-0.925-2.811c-0.342-1.043-0.699-2.118-1.074-3.216
		c-0.373-1.101-0.73-2.18-1.083-3.217c-0.35-1.026-0.654-1.957-0.922-2.789c-0.271-0.823-0.479-1.487-0.626-1.968
		c-0.025-0.096-0.063-0.204-0.12-0.335c-0.052-0.129-0.114-0.232-0.182-0.334c-0.073-0.099-0.155-0.141-0.245-0.152
		c-0.114,0-0.224,0.048-0.33,0.13c-0.107,0.075-0.226,0.19-0.361,0.328c-0.146,0.147-0.389,0.32-0.733,0.543
		c-0.35,0.21-0.747,0.431-1.198,0.671c-0.451,0.237-0.91,0.447-1.367,0.636c-0.458,0.194-0.88,0.337-1.255,0.438
		c-0.178,0.044-0.297,0.114-0.368,0.195c-0.061,0.076-0.092,0.168-0.092,0.261c0,0.075,0.031,0.167,0.082,0.275
		s0.124,0.199,0.194,0.275c0.081,0.097,0.13,0.238,0.123,0.427c-0.007,0.185-0.042,0.374-0.085,0.578
		c-0.052,0.207-0.091,0.389-0.131,0.547c-0.07,0.178-0.19,0.513-0.375,0.995c-0.185,0.479-0.406,1.058-0.662,1.746
		c-0.257,0.675-0.536,1.406-0.829,2.182c-0.299,0.786-0.587,1.563-0.88,2.338c-0.288,0.774-0.557,1.491-0.804,2.155
		c-0.251,0.66-0.465,1.228-0.63,1.678c-0.169,0.453-0.283,0.75-0.328,0.891c-0.234,0.648-0.506,1.395-0.829,2.231
		c-0.324,0.839-0.662,1.715-1.02,2.64c-0.359,0.912-0.71,1.819-1.07,2.702c-0.357,0.891-0.692,1.714-1.003,2.464
		c-0.304,0.753-0.572,1.379-0.788,1.881c-0.215,0.502-0.358,0.832-0.444,0.973c-0.406,0.713-0.833,1.227-1.296,1.563
		c-0.469,0.335-1.014,0.499-1.648,0.499h-1.381c-0.092,0-0.157,0.022-0.207,0.084c-0.042,0.054-0.069,0.144-0.069,0.282v0.865
		c-0.008,0.167,0.009,0.308,0.035,0.421c0.029,0.112,0.11,0.169,0.241,0.175c0.2,0,0.482-0.012,0.843-0.037
		c0.359-0.025,0.869-0.039,1.533-0.063c0.671-0.02,1.565-0.036,2.686-0.036c1.612,0.006,2.901,0.034,3.864,0.07
		c0.969,0.037,1.61,0.06,1.935,0.065c0.136,0,0.23-0.046,0.289-0.13c0.055-0.076,0.078-0.189,0.078-0.324v-1.146
		c0.008-0.064-0.023-0.121-0.094-0.169c-0.062-0.036-0.181-0.059-0.366-0.059h-1.935c-0.469-0.006-0.861-0.113-1.172-0.327
		c-0.311-0.209-0.463-0.466-0.484-0.772c0-0.11,0-0.257,0.021-0.424c0.001-0.172,0.023-0.352,0.073-0.538
		c0.037-0.212,0.129-0.544,0.265-1.004c0.13-0.465,0.301-0.989,0.493-1.599c0.194-0.601,0.402-1.229,0.611-1.878
		c0.22-0.648,0.43-1.269,0.633-1.861c0.196-0.594,0.376-1.111,0.527-1.547c0.15-0.439,0.262-0.753,0.321-0.932H169.791z
		 M159.761,42.922c0.055-0.156,0.169-0.492,0.354-1.011c0.175-0.519,0.402-1.153,0.673-1.896c0.274-0.757,0.569-1.558,0.883-2.417
		c0.31-0.863,0.62-1.724,0.936-2.579c0.305-0.853,0.598-1.638,0.86-2.361c0.262-0.715,0.471-1.31,0.642-1.785
		c0.167-0.469,0.269-0.751,0.299-0.843c0.07-0.205,0.152-0.362,0.243-0.448c0.104-0.103,0.221-0.147,0.353-0.147
		c0.094,0,0.172,0.065,0.229,0.206c0.076,0.137,0.149,0.341,0.234,0.617c0.045,0.136,0.137,0.447,0.273,0.924
		c0.148,0.469,0.327,1.059,0.533,1.756c0.211,0.699,0.437,1.459,0.69,2.275c0.245,0.811,0.489,1.627,0.741,2.46
		c0.243,0.82,0.482,1.594,0.707,2.313c0.224,0.724,0.411,1.352,0.576,1.865c0.155,0.515,0.279,0.876,0.343,1.07H159.761z
		 M195.184,42.88c0.181-0.019,0.363-0.034,0.569-0.05c0.196-0.011,0.384-0.021,0.55-0.028c0.171-0.011,0.285-0.016,0.355-0.016
		c0.638,0.005,1.195,0.13,1.682,0.38c0.473,0.246,0.912,0.582,1.303,1.011c0.399,0.422,0.778,0.902,1.16,1.442
		c0.187,0.261,0.396,0.566,0.631,0.925c0.233,0.356,0.472,0.729,0.719,1.112c0.229,0.381,0.454,0.742,0.655,1.077
		c0.2,0.336,0.359,0.606,0.474,0.821c0.11,0.2,0.294,0.51,0.539,0.964c0.245,0.438,0.521,0.934,0.829,1.486
		c0.307,0.544,0.611,1.077,0.904,1.587c0.3,0.517,0.55,0.931,0.771,1.267c0.205,0.327,0.429,0.665,0.659,1.015
		c0.247,0.341,0.485,0.66,0.725,0.947c0.237,0.285,0.451,0.502,0.638,0.644c0.341-0.012,0.75-0.037,1.212-0.049
		c0.469-0.027,0.942-0.051,1.441-0.064c0.49-0.017,0.957-0.022,1.393-0.022c0.973,0,1.779,0.017,2.405,0.036
		c0.617,0.023,1.094,0.037,1.43,0.063c0.333,0.025,0.561,0.037,0.677,0.037c0.138,0,0.231-0.037,0.29-0.102
		c0.057-0.076,0.079-0.195,0.079-0.353v-0.965c0-0.09-0.022-0.166-0.079-0.226c-0.059-0.059-0.152-0.093-0.29-0.093
		c-0.567,0.017-1.134-0.037-1.716-0.144c-0.585-0.11-1.099-0.353-1.55-0.725c-0.146-0.136-0.363-0.393-0.648-0.745
		c-0.281-0.357-0.604-0.77-0.951-1.234c-0.343-0.463-0.684-0.922-1.019-1.391c-0.328-0.456-0.612-0.852-0.853-1.187
		c-0.226-0.336-0.379-0.559-0.438-0.654c-0.077-0.124-0.241-0.358-0.483-0.725c-0.239-0.355-0.524-0.778-0.846-1.267
		c-0.324-0.486-0.648-0.978-0.981-1.471c-0.34-0.485-0.626-0.928-0.899-1.313c-0.261-0.378-0.451-0.654-0.565-0.805
		c-0.315-0.422-0.695-0.816-1.137-1.188c-0.442-0.374-0.99-0.683-1.627-0.915v-0.182c1.702-0.272,3.192-0.737,4.47-1.413
		c1.287-0.677,2.282-1.621,2.993-2.848c0.722-1.228,1.08-2.801,1.098-4.703c0-0.589-0.093-1.173-0.277-1.781
		c-0.188-0.599-0.457-1.188-0.828-1.75c-0.366-0.574-0.824-1.103-1.381-1.596c-0.613-0.557-1.333-1.042-2.17-1.475
		c-0.836-0.44-1.772-0.774-2.806-1.022c-1.032-0.254-2.171-0.372-3.4-0.385c-0.346,0-0.854,0.013-1.491,0.028
		c-0.644,0.01-1.368,0.026-2.146,0.043c-0.786,0.017-1.581,0.033-2.375,0.048c-0.797,0.011-1.513,0.022-2.173,0.022
		c-1.488,0-2.676-0.017-3.565-0.038c-0.888-0.028-1.538-0.05-1.964-0.066c-0.42-0.021-0.672-0.038-0.77-0.038
		c-0.118,0-0.206,0.028-0.248,0.076c-0.054,0.049-0.08,0.129-0.08,0.248v1.235c0,0.09,0.026,0.162,0.08,0.205
		c0.042,0.042,0.13,0.07,0.248,0.07h1.793c0.418,0,0.771,0.184,1.048,0.556c0.268,0.379,0.416,0.952,0.419,1.731v12.027
		c0,2.141,0,4.303-0.003,6.476c-0.019,2.179-0.041,4.412-0.089,6.693c0,0.406-0.078,0.725-0.229,0.936
		c-0.146,0.224-0.353,0.373-0.616,0.46c-0.26,0.076-0.563,0.118-0.902,0.113h-1.564c-0.094,0-0.158,0.03-0.207,0.096
		c-0.044,0.067-0.066,0.157-0.066,0.271v1.049c0,0.141,0.022,0.237,0.081,0.311c0.057,0.064,0.147,0.102,0.284,0.102
		c0.108,0,0.275-0.006,0.503-0.023c0.242-0.014,0.581-0.025,1.015-0.042c0.446-0.017,1.038-0.034,1.772-0.048
		c0.734-0.017,1.665-0.022,2.784-0.022c1.188,0,2.16,0.006,2.921,0.022c0.762,0.014,1.359,0.031,1.8,0.048
		c0.448,0.017,0.783,0.028,1.018,0.042c0.234,0.018,0.424,0.023,0.566,0.023c0.187,0,0.313-0.023,0.39-0.082
		c0.076-0.06,0.115-0.169,0.115-0.33v-1.097c0-0.091-0.022-0.167-0.076-0.229c-0.062-0.06-0.152-0.09-0.293-0.09h-2.303
		c-0.242-0.006-0.443-0.082-0.604-0.243c-0.162-0.163-0.291-0.372-0.386-0.646c-0.092-0.251-0.156-0.538-0.207-0.846
		c-0.015-0.146-0.037-0.445-0.051-0.894c-0.015-0.443-0.04-0.984-0.05-1.627c-0.016-0.638-0.026-1.317-0.038-2.033
		c-0.017-0.722-0.026-1.432-0.033-2.128c-0.012-0.694-0.012-1.315-0.012-1.872V42.88z M195.367,28.061
		c0-0.281,0.051-0.54,0.144-0.782c0.093-0.244,0.226-0.423,0.414-0.543c0.184-0.119,0.412-0.194,0.688-0.221
		c0.273-0.037,0.601-0.063,0.963-0.054c1.159-0.01,2.248,0.137,3.286,0.433c1.029,0.298,1.951,0.811,2.789,1.536
		c0.39,0.351,0.735,0.801,1.031,1.325c0.313,0.533,0.545,1.118,0.728,1.765c0.172,0.651,0.266,1.319,0.266,2.028
		c0.013,0.438-0.063,0.979-0.206,1.622c-0.148,0.661-0.409,1.335-0.767,2.055c-0.37,0.724-0.877,1.395-1.525,2.026
		c-0.662,0.633-1.492,1.151-2.496,1.548c-1.012,0.395-2.23,0.599-3.652,0.614c-0.279,0-0.556-0.021-0.845-0.059
		c-0.282-0.032-0.581-0.075-0.908-0.124L195.367,28.061z"/>
</g>
</svg>
